<svg xmlns="http://www.w3.org/2000/svg" width="720" height="220" viewBox="0 0 720 220" role="img" aria-labelledby="title desc">
  <title id="title">MarsTV logo</title>
  <desc id="desc">A coral planet with an orbital ring beside the MarsTV wordmark.</desc>
  <rect width="720" height="220" rx="32" fill="#070A12"/>
  <g transform="translate(36 20)">
    <circle cx="90" cy="90" r="56" fill="#FF5A4F"/>
    <path d="M56 120V62h16l18 26 18-26h16v58h-16V89l-18 25-18-25v31z" fill="#070A12"/>
    <path d="M18 84C46 57 104 42 153 51c35 6 48 19 42 31-8 16-47 33-91 40-49 8-92 0-99-15-4-8 1-16 13-23zm10 7c-8 7-8 12-1 16 15 9 47 10 81 4 38-6 69-18 74-29 3-6-8-14-32-18-42-7-94 7-122 27z" fill="#F8FAFC"/>
  </g>
  <text x="240" y="139" font-family="Inter, Arial, sans-serif" font-size="92" font-weight="850" letter-spacing="-5" fill="#F8FAFC">Mars<tspan fill="#FF5A4F">TV</tspan></text>
</svg>
